<?xml version="1.0" encoding="utf-8"?>
<!-- Generator: Adobe Illustrator 18.1.1, SVG Export Plug-In . SVG Version: 6.00 Build 0)  -->
<svg version="1.1" id="Layer_1" xmlns="http://www.w3.org/2000/svg" xmlns:xlink="http://www.w3.org/1999/xlink" x="0px" y="0px"
	 viewBox="0 0 20 20" enable-background="new 0 0 20 20" xml:space="preserve">
<path fill="#101818" d="M15.3,17.4L2.8,4.8c-0.5-0.5-0.5-1.4,0-1.9l0,0c0.5-0.5,1.4-0.5,1.9,0l12.5,12.5c0.5,0.5,0.5,1.4,0,1.9l0,0
	C16.7,17.9,15.8,17.9,15.3,17.4z"/>
<path fill="#101818" d="M17.2,4.8L4.7,17.4c-0.5,0.5-1.4,0.5-1.9,0l0,0c-0.5-0.5-0.5-1.4,0-1.9L15.3,2.9c0.5-0.5,1.4-0.5,1.9,0l0,0
	C17.7,3.5,17.7,4.3,17.2,4.8z"/>
</svg>
