<?xml version="1.0" encoding="utf-8"?>
<!-- Generator: Adobe Illustrator 18.1.1, SVG Export Plug-In . SVG Version: 6.00 Build 0)  -->
<svg version="1.1" id="Layer_1" xmlns="http://www.w3.org/2000/svg" xmlns:xlink="http://www.w3.org/1999/xlink" x="0px" y="0px"
	 viewBox="0 0 15 13" enable-background="new 0 0 15 13" xml:space="preserve">
<path fill="#FFFFFF" d="M2.2,0.2L2.2,0.2l11.7,5.7l0.1,0L14,5.9c0.1,0.1,0.1,0.1,0.2,0.2l0,0.1l0,0.1l0,0.1l0,0.1l0,0.1l0,0.1l0,0
	c0,0,0,0.1,0,0.1l0,0c0,0.1-0.1,0.1-0.1,0.2L14,7.1l0,0l-0.1,0L2.2,12.8C1.8,13,1.3,12.9,1,12.6c-0.3-0.3-0.4-0.7-0.2-1.1l1.7-5
	L0.8,1.6C0.7,1.2,0.7,0.8,1,0.5L1,0.4C1.3,0.1,1.8,0,2.2,0.2z M10.5,7.2H3.7l-1.3,3.9L10.5,7.2z M2.4,1.8l1.3,4h6.7L2.4,1.8z"/>
</svg>
